<?xml version="1.0" encoding="utf-8"?>
<!-- Generator: Adobe Illustrator 19.0.0, SVG Export Plug-In . SVG Version: 6.00 Build 0)  -->
<svg version="1.1" xmlns="http://www.w3.org/2000/svg" xmlns:xlink="http://www.w3.org/1999/xlink" x="0px" y="0px"
	 viewBox="0 0 1024 768" style="enable-background:new 0 0 1024 768;" xml:space="preserve">
<style type="text/css">
	.st0{display:none;}
	.st1{fill:#F4F6F7;}
	.st2{display:inline;fill:none;stroke:#EC2226;stroke-width:7;stroke-miterlimit:10;}
	.st3{fill:#F4F6F7;stroke:#000000;stroke-miterlimit:10;}
	.st4{fill:none;stroke:#EC2226;stroke-width:5;stroke-miterlimit:10;}
	.st5{display:none;fill:#F4F6F7;}
	.st6{fill:#EC2226;}
	.st7{display:none;fill:#F4F6F7;stroke:#000000;stroke-miterlimit:10;}
	.st8{display:none;fill:none;stroke:#EC2226;stroke-width:5;stroke-miterlimit:10;}
</style>
<g id="Layer_1" class="st0">
	<rect id="XMLID_1_" x="1.1" class="st1" width="1021.3" height="768"/>
	<path id="XMLID_4_" class="st2" d="M1199.6,504.6c-20.7-15.4-42.5-31.9-62.3-48.7C1031,363.5,941.9,252.2,875.5,127.2
		c-38.3,45.3-78.8,88.7-121.3,130.2c-68.1-66.6-122.9-146.6-160.5-235.7c-105,215.1-274.5,427.6-428.7,565.3S-17.4,735-17.4,735"/>
	<path id="XMLID_3_" class="st3" d="M670.7,586.5h-318c-6.6,0-12-5.4-12-12v-381c0-6.6,5.4-12,12-12h318c6.6,0,12,5.4,12,12v381
		C682.7,581.1,677.3,586.5,670.7,586.5z"/>
	<path id="XMLID_2_" class="st4" d="M165.2,586.9"/>
</g>
<g id="Layer_1_copy">
	<rect id="XMLID_8_" x="1.1" class="st5" width="1021.3" height="768"/>
	<path id="XMLID_15_" class="st6" d="M923.4,300.2l-1.7-3.1l-2.3,2.6c-29,34.4-60.3,67.9-92.8,99.7c-52.9-52.1-94.3-113.2-123-181.5
		l-2-4.8l-2.3,4.6c-75.8,155.3-203.7,324-333.8,440.1C275.2,738.7,240.7,763.2,229,770.3v5.4c10.1-5.6,43.2-28,139.7-114.2
		c61.6-55,124.5-123.5,181.8-198.1c60-78.1,112.1-160.6,150.8-238.9c29.2,67.7,70.8,128.2,123.7,179.9l1.6,1.6l1.6-1.6
		c32.4-31.6,63.7-64.9,92.7-99c29.6,55.2,65.1,106.8,105.1,154.4v-7.3C986,405.5,952.3,354.6,923.4,300.2z"/>
	<path id="XMLID_6_" class="st7" d="M616.9,567.7H406.6c-6.6,0-12-5.4-12-12V212.3c0-6.6,5.4-12,12-12h210.2c6.6,0,12,5.4,12,12
		v343.4C628.9,562.3,623.5,567.7,616.9,567.7z"/>
	<path id="XMLID_5_" class="st8" d="M165.2,586.9"/>
</g>
</svg>
